# xmcd
#
# Track frame offsets:
#	150
#	92642
#	184763
#
# Disc length: 3788 seconds
#
# Revision: 2
# Processed by: cddbd v1.5.2PL0 Copyright (c) Steve Scherf et al.
# Submitted via: EZCDDA 4.3.2
#
DISCID=1c0eca03
DTITLE=Fall Of Efrafa - Elil
DYEAR=1900
DGENRE=
TTITLE0=Beyond The Veil
TTITLE1=Dominion Theology
TTITLE2=For El Ahrairah To Cry
EXTD=
EXTT0=
EXTT1=
EXTT2=
PLAYORDER=
